<svg width="16" height="4" viewBox="0 0 16 4" fill="none" xmlns="http://www.w3.org/2000/svg">
<path fill-rule="evenodd" clip-rule="evenodd" d="M2.16667 0.333328C1.24619 0.333328 0.5 1.07952 0.5 1.99999C0.5 2.92047 1.24619 3.66666 2.16667 3.66666C3.08714 3.66666 3.83333 2.92047 3.83333 1.99999C3.83333 1.07952 3.08714 0.333328 2.16667 0.333328ZM6.33333 1.99999C6.33333 1.07952 7.07952 0.333328 8 0.333328C8.92047 0.333328 9.66667 1.07952 9.66667 1.99999C9.66667 2.92047 8.92047 3.66666 8 3.66666C7.07952 3.66666 6.33333 2.92047 6.33333 1.99999ZM12.1667 1.99999C12.1667 1.07952 12.9129 0.333328 13.8333 0.333328C14.7538 0.333328 15.5 1.07952 15.5 1.99999C15.5 2.92047 14.7538 3.66666 13.8333 3.66666C12.9129 3.66666 12.1667 2.92047 12.1667 1.99999Z" fill="#5F6973"/>
</svg>
