<svg width="560" height="400" viewBox="0 0 560 400" fill="none" xmlns="http://www.w3.org/2000/svg">
<g clip-path="url(#clip0)">
<path opacity="0.49" d="M455.551 63.7778L317.962 6.74072L123.339 201.37C123.339 255.136 145.129 303.778 180.374 338.963L318.024 395.938L455.674 338.963C490.92 303.716 512.709 255.074 512.709 201.37C512.586 147.605 490.796 98.9629 455.551 63.7778Z" fill="#99D1FF"/>
<path d="M436.724 290.383H420.49L416.293 264.148H440.921L436.724 290.383Z" fill="#09244C"/>
<path d="M421.354 264.827C421.354 260.815 424.626 257.543 428.638 257.543C432.65 257.543 435.921 260.815 435.921 264.827H436.6C436.6 260.445 433.02 256.864 428.638 256.864C424.255 256.864 420.675 260.445 420.675 264.827H421.354Z" fill="#09244C"/>
<path d="M416.293 264.148L417.589 272.173C419.317 273.037 421.91 273.593 425.613 273.037C434.564 271.679 435.304 276.741 435.428 280.938C435.551 283.531 436.292 285.198 437.403 285.938L440.921 264.148H416.293Z" fill="#0A5FE6"/>
<path d="M362.097 57.7284L294.445 29.7037L198.769 125.383C198.769 151.802 209.447 175.691 226.792 193.037L294.445 221.062L362.097 193.037C379.38 175.753 390.121 151.802 390.121 125.383C390.059 98.963 379.38 75.0741 362.097 57.7284Z" fill="#2E8DFF"/>
<path opacity="0.21" d="M547.091 99.5803C544.252 91.7408 540.733 84.0248 536.351 76.6173C531.968 69.2099 526.906 62.3581 521.413 56.1235L490.364 74.5186C483.698 67.8519 476.229 62.2964 468.143 57.8519L477.093 22.8519C461.723 15.6914 445.119 11.4322 428.144 10.321L419.194 45.321C409.997 45.321 400.738 46.6173 391.726 49.2717L373.331 18.2223C365.492 21.0618 357.776 24.5803 350.369 28.963C342.962 33.3457 336.11 38.4075 329.876 43.9013L348.27 74.9507C341.604 81.6173 336.048 89.0865 331.604 97.1729L296.605 88.2223C289.445 103.593 285.186 120.198 284.075 137.173L319.074 146.124C319.074 155.321 320.37 164.58 323.024 173.593L291.976 191.988C294.815 199.827 298.333 207.543 302.716 214.951C307.099 222.358 312.16 229.21 317.654 235.445L348.702 217.049C355.369 223.716 362.838 229.272 370.924 233.716L361.912 268.716C377.282 275.877 393.886 280.136 410.861 281.247L419.811 246.247C429.008 246.247 438.267 244.951 447.279 242.296L465.674 273.346C473.513 270.506 481.229 266.988 488.636 262.605C496.043 258.222 502.895 253.161 509.129 247.667L490.735 216.617C497.401 209.951 502.957 202.482 507.401 194.395L542.4 203.346C549.56 187.975 553.819 171.37 554.93 154.395L519.931 145.445C519.931 136.247 518.635 126.988 515.981 117.975L547.091 99.5803ZM447.897 193.716C421.416 209.395 387.22 200.63 371.603 174.148C355.924 147.667 364.689 113.469 391.17 97.8519C417.651 82.1729 451.847 90.9383 467.464 117.42C483.081 143.901 474.377 178.037 447.897 193.716Z" fill="#98C4F9"/>
<path opacity="0.21" d="M270.186 199.642C267.347 191.802 263.829 184.086 259.446 176.679C255.063 169.272 250.002 162.42 244.508 156.185L213.46 174.58C206.793 167.914 199.324 162.358 191.238 157.914L200.189 122.914C184.819 115.753 168.214 111.494 151.24 110.383L142.289 145.383C133.092 145.383 123.833 146.679 114.821 149.333L96.3648 118.222C88.5256 121.062 80.8097 124.58 73.4026 128.963C65.9954 133.346 59.1438 138.407 52.9094 143.901L71.3039 174.951C64.6374 181.617 59.082 189.086 54.6377 197.173L19.6389 188.222C12.4786 203.593 8.21947 220.198 7.1084 237.173L42.1073 246.123C42.1073 255.321 43.4035 264.58 46.0578 273.593L15.0094 291.988C17.8488 299.827 21.3672 307.543 25.7498 314.951C30.1324 322.358 35.1939 329.21 40.6876 335.444L71.736 317.049C78.4024 323.716 85.8713 329.272 93.9575 333.716L85.0071 368.716C100.377 375.877 116.981 380.136 133.956 381.247L142.907 346.247C152.104 346.247 161.363 344.951 170.375 342.296L188.769 373.346C196.609 370.506 204.324 366.988 211.731 362.605C219.139 358.222 225.99 353.161 232.225 347.667L213.83 316.617C220.497 309.951 226.052 302.481 230.496 294.395L265.495 303.346C272.655 287.975 276.915 271.37 278.026 254.395L243.027 245.444C243.027 236.247 241.731 226.988 239.076 217.975L270.186 199.642ZM170.93 293.778C144.45 309.457 110.253 300.691 94.6365 274.21C78.958 247.728 87.7231 213.531 114.204 197.914C140.684 182.235 174.881 191 190.498 217.481C206.176 243.901 197.411 278.099 170.93 293.778Z" fill="#98C4F9"/>
<path d="M261.853 280.938H240.558L235.064 246.494H267.347L261.853 280.938Z" fill="#09244C"/>
<path d="M241.669 247.358C241.669 242.111 245.928 237.79 251.236 237.79C256.483 237.79 260.804 242.049 260.804 247.358H261.668C261.668 241.617 256.977 236.926 251.236 236.926C245.496 236.926 240.805 241.617 240.805 247.358H241.669Z" fill="#09244C"/>
<path d="M235.064 246.494L236.731 257.049C239.015 258.16 242.41 258.901 247.286 258.16C259.014 256.432 260.002 263.037 260.187 268.531C260.31 271.926 261.298 274.086 262.779 275.074L267.347 246.494H235.064Z" fill="#98C4F9"/>
<path d="M269.816 225.63L268.273 227.667L247.718 212.605L249.199 210.568L269.816 225.63Z" fill="#0E3673"/>
<path d="M272.433 218.512L262.357 232.404L267.353 236.028L277.43 222.137L272.433 218.512Z" fill="#98C4F9"/>
<path d="M270.571 217.147L260.495 231.038L265.492 234.663L275.568 220.771L270.571 217.147Z" fill="#0E3673"/>
<path d="M213.09 205.568C217.596 205.506 221.361 209.086 221.423 213.593L221.855 244.21L243.582 221.802L255.619 232.914L219.879 269.765C216.731 273.037 211.546 273.099 208.275 269.951C206.732 268.469 205.929 266.556 205.806 264.58C205.744 264.272 205.744 263.963 205.744 263.654L205.065 213.778C204.942 209.395 208.584 205.691 213.09 205.568Z" fill="#0957C9"/>
<path d="M251.483 221.741C251.236 220.321 251.668 218.778 252.718 217.667L255.557 214.704C257.347 212.728 260.495 212.543 262.471 214.395C264.446 216.185 264.631 219.333 262.779 221.309L259.94 224.272C258.89 225.444 257.409 225.938 255.989 225.877L252.286 229.951L247.78 225.815L251.483 221.741Z" fill="#FFBD95"/>
<path d="M100.932 303.346L178.893 317.79C160.745 285.383 172.905 251.185 172.905 251.185H185.621H194.078H202.534C213.213 261.864 251.36 331.37 181.609 351.432C181.424 351.494 180.745 351.617 180.621 351.679C131.549 361.926 93.0315 316.432 93.0315 316.432L100.932 303.346Z" fill="#6D2F16"/>
<path d="M195.189 251.185C233.706 279.58 281.05 353.407 285.433 364.457L280.001 369.21L274.446 374.086C261.545 367.173 156.98 290.63 159.202 251.185H195.189Z" fill="#7F3919"/>
<path d="M284.754 377.605L286.112 378.469L300.864 366.37C300.741 366.124 300.556 365.877 300.371 365.63C300.309 365.506 300.185 365.383 300.062 365.321L284.754 377.605Z" fill="#0E3673"/>
<path d="M292.346 364.765L287.285 368.778L283.149 366.494L276.421 372.358L284.754 377.667L300.062 365.383C298.087 363.161 294.692 362.852 292.346 364.765Z" fill="#0A5FE6"/>
<path d="M90.0687 302.852L88.5255 302.358L77.7852 318.099C77.9703 318.284 78.2172 318.531 78.4641 318.654C78.5876 318.716 78.7111 318.839 78.8345 318.901L90.0687 302.852Z" fill="#0E3673"/>
<path d="M86.4269 317.358L90.1922 312.111L95.0069 313.16L99.6363 305.568L90.1922 302.852L78.958 318.901C81.3653 320.444 84.6986 319.765 86.4269 317.358Z" fill="#0A5FE6"/>
<path d="M163.214 213.963C163.214 208.469 167.721 203.963 173.214 203.963H211.423C216.916 203.963 221.423 208.469 221.423 213.963L202.534 251.185H159.202L163.214 213.963Z" fill="#0E3673"/>
<path d="M249.508 235.938C250.496 234.889 251.915 234.21 253.459 234.333L257.532 234.704C260.248 234.889 262.285 237.234 262.1 239.951C261.915 242.667 259.569 244.704 256.853 244.518L252.78 244.148C251.236 244.025 249.878 243.222 249.076 242.049L243.582 241.679L244.014 235.568L249.508 235.938Z" fill="#FFBD95"/>
<path d="M202.719 242.728C201.176 242.605 199.818 241.988 198.646 241.123C198.46 241 165.684 218.963 165.684 218.963C161.918 216.432 160.931 211.309 163.461 207.605C165.992 203.839 171.116 202.852 174.819 205.383L206.361 226.617L244.385 230.383L243.274 246.741L202.719 242.728Z" fill="#0A5FE6"/>
<path d="M192.226 199.765V206.123C192.226 207.42 193.275 208.469 194.572 208.469C195.868 208.469 196.917 207.42 196.917 206.123V199.765C196.176 200.012 195.436 200.197 194.572 200.197C193.707 200.197 192.967 200.074 192.226 199.765Z" fill="#FFBD95"/>
<path d="M194.51 191.556C192.905 193.16 189.88 192.914 188.029 192.543C187.967 192.852 187.967 193.222 187.967 193.531C187.967 196.37 189.757 198.778 192.288 199.704C193.028 199.951 193.769 200.136 194.633 200.136C195.497 200.136 196.238 199.951 196.979 199.704C199.51 198.778 201.3 196.37 201.3 193.531C201.3 193.16 201.238 192.79 201.176 192.42C195.744 193.407 194.51 191.556 194.51 191.556Z" fill="#FFBD95"/>
<path d="M194.572 186.926C191.238 186.926 188.522 189.395 188.029 192.543C187.411 196.741 190.621 198.84 190.621 198.84L194.51 191.556C194.51 191.556 195.744 193.407 201.115 192.481C200.621 189.333 197.905 186.926 194.572 186.926Z" fill="black"/>
<path fill-rule="evenodd" clip-rule="evenodd" d="M197.906 195.299L193.328 193.956L193.469 193.476L197.965 194.795C198.135 194.274 198.624 193.898 199.201 193.898C199.833 193.898 200.36 194.349 200.476 194.947H201.115V195.447H200.476C200.36 196.045 199.833 196.497 199.201 196.497C198.517 196.497 197.957 195.969 197.906 195.299ZM199.201 194.398C198.76 194.398 198.402 194.756 198.402 195.197C198.402 195.639 198.76 195.997 199.201 195.997C199.643 195.997 200 195.639 200 195.197C200 194.756 199.643 194.398 199.201 194.398Z" fill="black"/>
<path d="M69.2068 226.432L67.0463 229.395L69.9475 234.21C71.3055 236.432 70.6265 239.333 68.5278 240.815L60.0095 226.556L65.1328 219.58L69.2068 226.432Z" fill="#0A5FE6"/>
<path d="M68.279 241.062C68.0321 241.185 67.7852 241.309 67.6001 241.432L63.5261 234.58L59.4522 227.79L59.3904 227.667L60.1312 226.679L68.6494 240.938C68.4642 240.877 68.3408 241 68.279 241.062Z" fill="#0E3673"/>
<path d="M15.503 137.605L12.2932 138.839L14.7006 142.79C16.0585 145.012 15.3796 147.914 13.2809 149.395L4.2688 134.395L11.9229 131.679L15.503 137.605Z" fill="#0A5FE6"/>
<path d="M12.9722 149.642C12.7253 149.765 12.4784 149.889 12.2932 150.012L8.21928 143.16L3.65153 135.568L3.15771 134.827L4.26879 134.457L13.2808 149.457C13.1574 149.519 13.0957 149.58 12.9722 149.642Z" fill="#0E3673"/>
<path d="M221.361 151.432L245.557 143.716L243.891 138.407L219.694 146.123C218.83 146.37 218.583 147.79 219.015 149.272C219.447 150.691 220.497 151.679 221.361 151.432Z" fill="#458AF5"/>
<path d="M219.2 149.704C219.139 149.58 219.077 149.395 219.015 149.21C218.953 148.963 218.892 148.716 218.83 148.469C218.213 148.407 217.595 147.975 217.41 147.296L217.102 146.247C216.793 145.321 217.287 144.395 218.213 144.086L244.014 135.877C244.94 135.568 245.866 136.062 246.175 136.988L246.483 138.037C246.792 138.963 246.298 139.889 245.372 140.198L244.57 140.444L244.94 141.617L245.743 141.37C247.286 140.877 248.15 139.21 247.656 137.728L247.348 136.679C246.854 135.136 245.187 134.272 243.706 134.765L230.703 138.774V-14H229.726V139.262L217.719 142.914C216.176 143.407 215.312 145.074 215.805 146.556L216.114 147.605C216.669 148.963 217.904 149.765 219.2 149.704Z" fill="#0E3673"/>
<path d="M243.891 138.407L240.372 139.518C239.014 141.679 236.916 144.21 235.681 144.889C234.015 145.753 230.064 147.111 224.015 147.235C221.669 147.296 220.003 147.667 218.83 148.099C218.83 148.469 218.892 148.839 219.015 149.21C219.509 150.691 220.558 151.679 221.361 151.37L245.557 143.654L243.891 138.407Z" fill="#DBECFC"/>
<path d="M245.543 143.707C246.387 143.439 246.695 142.036 246.23 140.574C245.766 139.112 244.704 138.144 243.859 138.413C243.015 138.681 242.707 140.084 243.171 141.546C243.636 143.008 244.698 143.976 245.543 143.707Z" fill="#0E3673"/>
<path d="M225.064 121.494C225.682 122.296 226.669 122.79 227.718 122.79H232.039C233.891 122.79 235.496 121.247 235.496 119.395C235.496 117.543 233.953 115.938 232.101 115.938H227.78C226.731 115.938 225.743 116.432 225.126 117.235H221.299V121.494H225.064Z" fill="#FFBD95"/>
<path d="M222.842 88.963C223.459 89.7655 224.447 90.2593 225.496 90.2593H229.817C231.669 90.2593 233.274 88.7161 233.274 86.8643C233.274 85.0124 231.731 83.4075 229.879 83.4075H225.558C224.509 83.4075 223.521 83.9013 222.904 84.7038H219.077V88.963H222.842Z" fill="#FFBD95"/>
<path d="M153.647 119.642C153.647 123.469 156.795 126.556 160.622 126.556C160.622 126.556 222.04 126.309 222.41 126.247L222.348 112.42L160.622 112.667C156.733 112.667 153.647 115.815 153.647 119.642Z" fill="#0A5FE6"/>
<path d="M154.943 86.5555C154.943 90.3827 158.091 93.4691 161.918 93.4691C161.918 93.4691 219.756 94.395 220.064 94.3333L220.003 80.5061L161.918 79.5802C158.029 79.5802 154.881 82.7283 154.943 86.5555Z" fill="#0A5FE6"/>
<path d="M155.931 126.556L141.919 102.914C107.599 91.247 21.3671 124.025 11.0588 130.259L16.3055 139.148C33.0951 140.877 82.538 143.407 116.549 133.963C91.9821 159.272 70.563 203.901 64.02 219.457L69.2668 228.346C79.6368 222.296 149.758 162.235 155.931 126.556Z" fill="#7F3919"/>
<path d="M181.3 126.432C185.621 123.839 187.041 118.16 184.51 113.839L166.609 83.7777C164.017 79.4567 158.338 78.037 154.017 80.5678L141.857 102.914L155.931 126.494L181.3 126.432Z" fill="#0E3673"/>
<path d="M183.831 90.8148C181.732 91.0617 179.695 89.2099 178.584 87.9136C178.337 88.0988 178.152 88.3457 177.967 88.5926C176.362 90.6296 176.3 93.4074 177.597 95.5062C177.967 96.1234 178.461 96.679 179.078 97.1111C179.695 97.5432 180.313 97.9136 180.992 98.0988C183.337 98.8395 185.991 98.037 187.596 96C187.782 95.7531 187.967 95.4444 188.152 95.1358C183.708 92.8518 183.831 90.8148 183.831 90.8148Z" fill="#FFBD95"/>
<path d="M177.658 95.5061L174.14 100.136C173.399 101.062 173.584 102.42 174.51 103.16C175.436 103.901 176.794 103.716 177.535 102.79L181.053 98.1604C180.374 97.9752 179.695 97.6049 179.14 97.1728C178.523 96.679 178.029 96.1234 177.658 95.5061Z" fill="#FFBD95"/>
<path d="M186.485 87.5432C185.745 86.9259 184.88 86.5555 183.954 86.4321C183.461 86 180.806 83.9629 177.72 85.9382C177.72 85.9382 173.646 78.7777 166.548 83.7777C165.004 80.9382 162.35 79.7037 161.301 79.2098C154.141 75.8765 147.227 81 144.943 86.4321C142.66 91.9259 145.869 98.1604 150.807 101.494C162.165 109.148 173.029 102.358 173.029 102.358C175.745 101.309 179.14 97.1728 179.14 97.1728C181.547 94.0247 183.893 90.8765 183.893 90.8765C183.893 90.8765 183.769 92.9135 188.214 95.2592C189.51 92.6049 188.893 89.3333 186.485 87.5432Z" fill="black"/>
<path fill-rule="evenodd" clip-rule="evenodd" d="M184.101 95.0866L181.067 92.2314L181.41 91.8673L184.441 94.7205C184.668 94.5529 184.948 94.4537 185.251 94.4537C186.003 94.4537 186.612 95.0631 186.612 95.8148C186.612 96.1004 186.524 96.3653 186.374 96.5842L186.786 96.996L186.432 97.3496L186.02 96.9378C185.801 97.088 185.536 97.1759 185.251 97.1759C184.499 97.1759 183.89 96.5666 183.89 95.8148C183.89 95.547 183.967 95.2972 184.101 95.0866ZM185.251 94.9537C184.775 94.9537 184.39 95.3393 184.39 95.8148C184.39 96.2904 184.775 96.6759 185.251 96.6759C185.726 96.6759 186.112 96.2904 186.112 95.8148C186.112 95.3393 185.726 94.9537 185.251 94.9537Z" fill="black"/>
<path d="M489.994 122.358L482.463 155.815L419.132 142.482L421.848 128.284L472.896 138.407L477.463 119.333L489.994 122.358Z" fill="#0957C9"/>
<path d="M481.538 145.753H441.786C412.342 170.938 400.676 268.161 400.738 281H411.787C422.527 266.494 451.847 222.42 461.723 186C471.6 222.42 500.92 266.494 511.66 281H522.709C522.833 268.161 510.981 170.938 481.538 145.753Z" fill="#7F3919"/>
<path d="M489.994 122.358C489.994 116.988 485.55 112.543 480.179 112.543H442.712C437.341 112.543 432.897 116.988 432.897 122.358L441.539 145.753H481.291L489.994 122.358Z" fill="#0E3673"/>
<path d="M459.069 107.296L459.625 113.469C459.748 114.704 460.859 115.691 462.094 115.568C463.328 115.444 464.316 114.333 464.192 113.099L463.637 106.926C462.958 107.235 462.217 107.481 461.415 107.543C460.612 107.605 459.81 107.481 459.069 107.296Z" fill="#FFBD95"/>
<path d="M462.958 99.5803C462.958 99.5803 462.156 101.37 467.464 100.506C466.971 97.4198 464.316 95.0741 461.045 95.0741C457.773 95.0741 455.119 97.4815 454.625 100.568C456.477 100.938 461.354 101.185 462.958 99.5803Z" fill="black"/>
<path d="M462.958 99.5803C461.353 101.185 456.476 100.938 454.625 100.568C454.563 100.877 454.563 101.185 454.563 101.556C454.563 104.333 456.291 106.679 458.76 107.605C459.501 107.852 460.242 108.037 461.044 108.037C461.847 108.037 462.649 107.914 463.328 107.605C465.797 106.679 467.526 104.333 467.526 101.556C467.526 101.185 467.464 100.815 467.402 100.506C462.217 101.37 462.958 99.5803 462.958 99.5803Z" fill="#FFBD95"/>
<path d="M462.711 100.198V107.79C462.711 107.79 465.242 107.296 466.723 104.889C468.205 102.481 467.464 100.012 467.464 100.012L462.711 100.198Z" fill="black"/>
<path d="M463.02 104.272C463.497 104.272 463.884 103.885 463.884 103.407C463.884 102.93 463.497 102.543 463.02 102.543C462.542 102.543 462.155 102.93 462.155 103.407C462.155 103.885 462.542 104.272 463.02 104.272Z" fill="#FFBD95"/>
<path d="M402.467 281L401.047 284.395H395.43C392.837 284.395 390.677 286.432 390.492 289.025H407.096L410.429 281.062H402.467V281Z" fill="#0A5FE6"/>
<path d="M390.429 289.333C390.429 289.58 390.429 289.827 390.491 290.136H398.454H406.355H406.54L407.034 288.963H390.429C390.491 289.086 390.429 289.21 390.429 289.333Z" fill="#0E3673"/>
<path d="M513.944 281L514.562 284.395H509.932C507.34 284.395 505.179 286.432 504.994 289.025H522.524L520.919 281.062H513.944V281Z" fill="#0A5FE6"/>
<path d="M504.932 289.333C504.932 289.58 504.932 289.827 504.993 290.136H513.018H521.845H522.709L522.462 288.963H504.993C504.993 289.086 504.932 289.21 504.932 289.333Z" fill="#0E3673"/>
<path d="M340.986 108.099L334.443 129.21L339.073 130.63L345.616 109.518C345.863 108.778 344.999 107.852 343.702 107.481C342.468 107.111 341.233 107.42 340.986 108.099Z" fill="#95C2F9"/>
<path d="M343.332 107.42C343.455 107.42 343.641 107.481 343.764 107.543C344.011 107.605 344.196 107.728 344.381 107.79C344.752 107.358 345.369 107.173 345.925 107.358L346.85 107.667C347.653 107.914 348.085 108.716 347.838 109.519L340.801 131.926C340.554 132.728 339.752 133.16 338.949 132.914L338.024 132.605C337.221 132.358 336.789 131.556 337.036 130.753L337.221 130.074L336.233 129.765L336.048 130.444C335.616 131.802 336.357 133.222 337.715 133.593L338.641 133.901C339.999 134.333 341.418 133.593 341.789 132.235L345.122 121.494L507.339 173.284L507.648 172.296L345.431 120.506L348.764 109.765C349.196 108.407 348.455 106.988 347.097 106.617L346.171 106.309C345.122 106 343.949 106.494 343.332 107.42Z" fill="#7F3919"/>
<path d="M343.764 107.543C342.468 107.173 341.233 107.42 341.048 108.16L334.443 129.21L335.061 129.395C336.604 128.654 338.147 126.988 337.838 123.222C337.345 117.111 341.604 115.691 343.949 114.889L345.616 109.58C345.863 108.84 344.999 107.914 343.764 107.543Z" fill="#0A5FE6"/>
<path d="M337.221 128.593C338.517 128.963 339.382 129.889 339.135 130.63C338.888 131.37 337.715 131.617 336.419 131.247C335.122 130.877 334.258 129.951 334.505 129.21C334.69 128.469 335.925 128.222 337.221 128.593Z" fill="#7F3919"/>
<path d="M378.763 130.63C378.454 129.518 377.652 128.593 376.479 128.099L371.911 126.247C369.936 125.444 367.59 126.432 366.788 128.407C365.986 130.383 366.973 132.728 368.948 133.531L373.516 135.383C374.689 135.815 375.923 135.691 376.911 135.136L380.985 136.741L382.775 132.235L378.763 130.63Z" fill="#FFBD95"/>
<path d="M432.959 122.358L404.256 135.753L383.084 127.852L377.775 140.753L406.416 151.864L438.144 136.37L432.959 122.358Z" fill="#0A5FE6"/>
<path fill-rule="evenodd" clip-rule="evenodd" d="M457.711 102.546C457.235 102.546 456.85 102.932 456.85 103.407C456.85 103.883 457.235 104.268 457.711 104.268C458.187 104.268 458.572 103.883 458.572 103.407C458.572 102.932 458.187 102.546 457.711 102.546ZM454.81 103.657H456.373C456.49 104.29 457.045 104.768 457.711 104.768C458.406 104.768 458.979 104.248 459.062 103.576L463.383 102.602L463.273 102.114L459.03 103.07C458.88 102.482 458.346 102.046 457.711 102.046C457.045 102.046 456.49 102.525 456.373 103.157H454.81V103.657Z" fill="black"/>
<path d="M466.415 105.444C466.415 105.444 484.006 104.333 485.179 121.309C485.179 121.309 491.661 125.506 491.167 133.284C490.611 142.667 469.377 148.531 470.118 126C470.118 126 459.625 120.938 462.711 107.79C462.711 107.79 462.341 104.272 466.415 105.444Z" fill="black"/>
<path d="M465.797 94.642C463.143 92.8519 459.625 93.2222 457.402 95.3827C457.155 95.6296 456.909 95.8766 456.723 96.1235L452.711 96.3087L466.6 105.568L467.34 104.457L467.896 103.531C468.081 103.284 468.204 102.975 468.328 102.667C469.501 99.8889 468.513 96.4321 465.797 94.642Z" fill="#0A5FE6"/>
</g>
<defs>
<clipPath id="clip0">
<rect width="560" height="400" fill="white"/>
</clipPath>
</defs>
</svg>
