<svg width="30" height="30" viewBox="0 0 30 30" fill="none" xmlns="http://www.w3.org/2000/svg">
<circle cx="15" cy="15" r="15" fill="#141E28" fill-opacity="0.2"/>
<path fill-rule="evenodd" clip-rule="evenodd" d="M9 9.66666C7.89543 9.66666 7 10.5621 7 11.6667V18.3333C7 19.4379 7.89543 20.3333 9 20.3333H16.3333C17.4379 20.3333 18.3333 19.4379 18.3333 18.3333V16.2955L21.9458 18.8758C22.1491 19.021 22.4163 19.0404 22.6384 18.9261C22.8604 18.8118 23 18.5831 23 18.3333V11.6667C23 11.4169 22.8604 11.1882 22.6384 11.0739C22.4163 10.9596 22.1491 10.979 21.9458 11.1242L18.3333 13.7045V11.6667C18.3333 10.5621 17.4379 9.66666 16.3333 9.66666H9Z" fill="white" fill-opacity="0.98"/>
</svg>
